#!OML:ASF E:\pregnant2\Project 1\Capture day 1\Session 1\pregnant2.ASF
:FULLY-SPECIFIED
:DEGREES
2129
root 9.2051 11.5472 19.2839 56.5061 -0.581518 -0.745147
lowerback -50.4177 2.60241 1.53643
upperback -10.6072 2.48202 -0.739355
thorax 8.81024 1.12406 -0.445079
lowerneck -13.3796 10.4038 12.7438
upperneck 18.6615 12.6183 -4.91613
head 9.21231 6.35199 -2.11493
rclavicle 3.10601e-016 -8.74653e-015
rhumerus -67.2785 30.1757 -77.8597
rradius 107.913
rwrist 20.2292
rhand -21.7122 -19.5679
rfingers 7.12502
rthumb 4.68666 -49.4961
lclavicle 3.10601e-016 -8.74653e-015
lhumerus -66.5798 -32.0869 82.2988
lradius 104.293
lwrist -19.1662
lhand -22.4327 28.9515
lfingers 7.12502
lthumb 3.99089 58.8939
rfemur -133.685 0.446698 25.6074
rtibia 84.9533
rfoot -4.81618 -5.96837
rtoes 3.69384
lfemur -133.79 -0.888327 -20.2227
ltibia 85.1547
lfoot -5.52553 1.77759
ltoes -15.161
2130
root 9.20593 11.5386 19.2668 56.2025 -0.571553 -0.76019
lowerback -50.5704 2.61108 1.5028
upperback -10.5717 2.50702 -0.741842
thorax 8.87006 1.13565 -0.418783
lowerneck -13.3563 10.3744 12.7673
upperneck 18.7671 12.5584 -4.81271
head 9.23412 6.33764 -2.09198
rclavicle -9.23106e-015 -8.54774e-015
rhumerus -66.1171 29.9848 -77.3477
rradius 107.618
rwrist 20.8722
rhand -20.1785 -19.0572
rfingers 7.12502
rthumb 6.16751 -48.9474
lclavicle -9.23106e-015 -8.54774e-015
lhumerus -65.68 -31.8078 81.9689
lradius 104.181
lwrist -19.3777
lhand -21.3731 28.6827
lfingers 7.12502
lthumb 5.01413 58.6034
rfemur -133.489 0.426611 25.5928
rtibia 85.0178
rfoot -4.75541 -5.97317
rtoes 3.67693
lfemur -133.604 -0.878696 -20.2932
ltibia 85.221
lfoot -5.48719 1.69615
ltoes -15.1664
2131
root 9.20686 11.53 19.2496 55.9001 -0.558271 -0.777694
lowerback -50.719 2.62587 1.47724
upperback -10.5353 2.53601 -0.747916
thorax 8.9305 1.14887 -0.398416
lowerneck -13.3364 10.3437 12.7863
upperneck 18.8686 12.4965 -4.70772
head 9.25461 6.32217 -2.06803
rclavicle 3.05631e-015 1.78906e-015
rhumerus -64.9778 29.7797 -76.8455
rradius 107.301
rwrist 21.6152
rhand -18.5837 -18.4896
rfingers 7.12502
rthumb 7.70695 -48.3292
lclavicle 3.05631e-015 1.78906e-015
lhumerus -64.7675 -31.5299 81.6473
lradius 104.043
lwrist -19.6929
lhand -20.2645 28.4705
lfingers 7.12502
lthumb 6.08444 58.3631
rfemur -133.295 0.406951 25.5844
rtibia 85.0808
rfoot -4.69206 -5.97588
rtoes 3.65988
lfemur -133.419 -0.868608 -20.3569
ltibia 85.2862
lfoot -5.44691 1.61661
ltoes -15.1657
2132
root 9.20788 11.5215 19.2324 55.598 -0.541596 -0.799393
lowerback -50.8605 2.64863 1.46197
upperback -10.4997 2.57023 -0.758733
thorax 8.98948 1.16425 -0.38577
lowerneck -13.3081 10.3093 12.8125
upperneck 18.953 12.4309 -4.61459
head 9.26871 6.3044 -2.05032
rclavicle 3.96327e-015 -8.34896e-015
rhumerus -63.8736 29.5713 -76.3721
rradius 106.96
rwrist 22.4737
rhand -16.9613 -17.9158
rfingers 7.12502
rthumb 9.27267 -47.6919
lclavicle 3.96327e-015 -8.34896e-015
lhumerus -63.8439 -31.2513 81.3313
lradius 103.875
lwrist -20.1044
lhand -19.1057 28.3099
lfingers 7.12502
lthumb 7.20309 58.1673
rfemur -133.099 0.388872 25.5836
rtibia 85.143
rfoot -4.62785 -5.97584
rtoes 3.64432
lfemur -133.236 -0.856321 -20.4119
ltibia 85.3511
lfoot -5.40475 1.53852
ltoes -15.1608
2133
root 9.20896 11.5128 19.215 55.2966 -0.519277 -0.829022
lowerback -50.9878 2.68139 1.46072
upperback -10.4689 2.61029 -0.773961
thorax 9.04166 1.18211 -0.382091
lowerneck -13.2808 10.2722 12.8354
upperneck 19.0355 12.3608 -4.51723
head 9.28146 6.28479 -2.03135
rclavicle 3.08427e-014 7.35503e-015
rhumerus -62.8194 29.3737 -75.9436
rradius 106.596
rwrist 23.434
rhand -15.34 -17.3684
rfingers 7.12502
rthumb 10.8368 -47.0688
lclavicle 3.08427e-014 7.35503e-015
lhumerus -62.9147 -30.9739 81.0244
lradius 103.68
lwrist -20.5868
lhand -17.9268 28.1709
lfingers 7.12502
lthumb 8.34096 57.9863
rfemur -132.904 0.375441 25.5956
rtibia 85.2066
rfoot -4.56334 -5.97526
rtoes 3.62912
lfemur -133.057 -0.839164 -20.4544
ltibia 85.4174
lfoot -5.358 1.46067
ltoes -15.1503
2134
root 9.20986 11.5031 19.197 54.9973 -0.485215 -0.864045
lowerback -51.0867 2.7151 1.46772
upperback -10.4491 2.64798 -0.78955
thorax 9.07785 1.19895 -0.384166
lowerneck -13.2338 10.2316 12.8697
upperneck 19.0921 12.2882 -4.4349
head 9.28328 6.26357 -2.0208
rclavicle 1.3828e-014 5.36719e-015
rhumerus -61.8175 29.1998 -75.571
rradius 106.218
rwrist 24.4791
rhand -13.7569 -16.8839
rfingers 7.12502
rthumb 12.3635 -46.4984
lclavicle 1.3828e-014 5.36719e-015
lhumerus -61.9815 -30.6929 80.7272
lradius 103.459
lwrist -21.1124
lhand -16.7331 28.057
lfingers 7.12502
lthumb 9.49288 57.8232
rfemur -132.717 0.362706 25.6199
rtibia 85.2755
rfoot -4.49454 -5.9759
rtoes 3.60403
lfemur -132.891 -0.821238 -20.483
ltibia 85.4867
lfoot -5.30512 1.37808
ltoes -15.1401
2135
root 9.2106 11.4924 19.1781 54.6882 -0.441286 -0.904085
lowerback -51.14 2.74909 1.48307
upperback -10.4415 2.68282 -0.805335
thorax 9.09472 1.21462 -0.392322
lowerneck -13.1763 10.1884 12.9061
upperneck 19.1335 12.2127 -4.35469
head 9.27803 6.24107 -2.01242
rclavicle -1.38155e-014 -4.37326e-015
rhumerus -60.8683 29.0567 -75.2615
rradius 105.833
rwrist 25.5508
rhand -12.2389 -16.4775
rfingers 7.12502
rthumb 13.8268 -45.998
lclavicle -1.38155e-014 -4.37326e-015
lhumerus -61.0449 -30.4066 80.4407
lradius 103.22
lwrist -21.6409
lhand -15.5381 27.947
lfingers 7.12502
lthumb 10.6457 57.6573
rfemur -132.528 0.350146 25.6541
rtibia 85.3509
rfoot -4.423 -5.98065
rtoes 3.57552
lfemur -132.726 -0.801948 -20.5006
ltibia 85.5614
lfoot -5.24658 1.29049
ltoes -15.1351
2136
root 9.21117 11.4809 19.1587 54.377 -0.390809 -0.946573
lowerback -51.164 2.7827 1.50165
upperback -10.4438 2.7166 -0.8234
thorax 9.09693 1.22985 -0.405438
lowerneck -13.1037 10.1415 12.954
upperneck 19.1549 12.1329 -4.28383
head 9.26415 6.21653 -2.01051
rclavicle 2.04127e-014 -2.18663e-015
rhumerus -59.9731 28.9385 -75.0178
rradius 105.456
rwrist 26.5892
rhand -10.7679 -16.1637
rfingers 7.12502
rthumb 15.2441 -45.582
lclavicle 2.04127e-014 -2.18663e-015
lhumerus -60.107 -30.1188 80.1682
lradius 102.965
lwrist -22.131
lhand -14.3455 27.8341
lfingers 7.12502
lthumb 11.796 57.4819
rfemur -132.343 0.337128 25.6937
rtibia 85.4313
rfoot -4.34914 -5.98786
rtoes 3.54829
lfemur -132.567 -0.782551 -20.5105
ltibia 85.6399
lfoot -5.18213 1.19932
ltoes -15.1331
2137
root 9.21152 11.4691 19.139 54.0579 -0.341988 -0.989058
lowerback -51.1605 2.81249 1.51652
upperback -10.452 2.74845 -0.842101
thorax 9.08898 1.24426 -0.418824
lowerneck -13.0149 10.0906 13.0042
upperneck 19.1577 12.0486 -4.21302
head 9.2407 6.19017 -2.01066
rclavicle -5.40756e-015 -4.57205e-015
rhumerus -59.1247 28.8477 -74.8381
rradius 105.096
rwrist 27.5233
rhand -9.31027 -15.9365
rfingers 7.12502
rthumb 16.6478 -45.2426
lclavicle -5.40756e-015 -4.57205e-015
lhumerus -59.179 -29.8289 79.9162
lradius 102.703
lwrist -22.5505
lhand -13.1703 27.7158
lfingers 7.12502
lthumb 12.929 57.2952
rfemur -132.152 0.32481 25.7317
rtibia 85.5139
rfoot -4.27523 -5.99556
rtoes 3.51983
lfemur -132.404 -0.761252 -20.5196
ltibia 85.7216
lfoot -5.1161 1.10697
ltoes -15.1313
2138
root 9.21187 11.4578 19.1197 53.7389 -0.297627 -1.03188
lowerback -51.1616 2.8434 1.53159
upperback -10.4561 2.78181 -0.864055
thorax 9.08652 1.25918 -0.435032
lowerneck -12.9153 10.0363 13.0644
upperneck 19.1431 11.9603 -4.15046
head 9.21015 6.16176 -2.01638
rclavicle -6.42944e-016 2.88238e-015
rhumerus -58.317 28.7733 -74.7156
rradius 104.758
rwrist 28.3239
rhand -7.88169 -15.7664
rfingers 7.12502
rthumb 18.0227 -44.9514
lclavicle -6.42944e-016 2.88238e-015
lhumerus -58.2591 -29.5361 79.6838
lradius 102.435
lwrist -22.8852
lhand -12.0171 27.6027
lfingers 7.12502
lthumb 14.0405 57.1085
rfemur -131.956 0.313726 25.7677
rtibia 85.5935
rfoot -4.20605 -6.00333
rtoes 3.49567
lfemur -132.236 -0.737555 -20.527
ltibia 85.8032
lfoot -5.05046 1.01766
ltoes -15.1376
2139
root 9.21219 11.4472 19.1011 53.4214 -0.261568 -1.0734
lowerback -51.1747 2.873 1.54218
upperback -10.4548 2.81571 -0.88757
thorax 9.09181 1.27419 -0.450369
lowerneck -12.8113 9.98168 13.1259
upperneck 19.1229 11.8708 -4.08409
head 9.17662 6.13324 -2.02139
rclavicle -1.79807e-014 -1.13307e-014
rhumerus -57.5426 28.7168 -74.6426
rradius 104.432
rwrist 28.9854
rhand -6.45071 -15.639
rfingers 7.12502
rthumb 19.399 -44.6914
lclavicle -1.79807e-014 -1.13307e-014
lhumerus -57.3562 -29.239 79.4744
lradius 102.165
lwrist -23.1329
lhand -10.8698 27.5161
lfingers 7.12502
lthumb 15.1459 56.9419
rfemur -131.755 0.304198 25.7977
rtibia 85.6678
rfoot -4.13999 -6.00951
rtoes 3.47399
lfemur -132.063 -0.711418 -20.5366
ltibia 85.8838
lfoot -4.98656 0.933307
ltoes -15.1471
2140
root 9.21255 11.4374 19.0833 53.1058 -0.236232 -1.11309
lowerback -51.2029 2.90121 1.5484
upperback -10.4449 2.8497 -0.911367
thorax 9.10852 1.28908 -0.463591
lowerneck -12.7074 9.92905 13.1892
upperneck 19.0962 11.7838 -4.01798
head 9.14131 6.10577 -2.02638
rclavicle 5.63819e-015 3.77691e-015
rhumerus -56.7895 28.67 -74.604
rradius 104.111
rwrist 29.5401
rhand -5.02589 -15.5292
rfingers 7.12502
rthumb 20.7685 -44.4377
lclavicle 5.63819e-015 3.77691e-015
lhumerus -56.4703 -28.9298 79.285
lradius 101.889
lwrist -23.301
lhand -9.73604 27.4448
lfingers 7.12502
lthumb 16.2378 56.7848
rfemur -131.547 0.297113 25.8199
rtibia 85.7351
rfoot -4.0766 -6.01335
rtoes 3.44827
lfemur -131.884 -0.681928 -20.5493
ltibia 85.9623
lfoot -4.92627 0.854919
ltoes -15.1548
2141
root 9.21299 11.4285 19.0661 52.7904 -0.224246 -1.1551
lowerback -51.2372 2.93271 1.55591
upperback -10.4314 2.88675 -0.936608
thorax 9.13019 1.30517 -0.477489
lowerneck -12.6065 9.87732 13.248
upperneck 19.0782 11.6971 -3.94246
head 9.10871 6.07899 -2.02715
rclavicle 6.59445e-015 -4.77083e-015
rhumerus -56.0569 28.632 -74.593
rradius 103.773
rwrist 30.0278
rhand -3.60294 -15.41
rfingers 7.12502
rthumb 22.1352 -44.1629
lclavicle 6.59445e-015 -4.77083e-015
lhumerus -55.6125 -28.6095 79.1177
lradius 101.608
lwrist -23.4013
lhand -8.60613 27.394
lfingers 7.12502
lthumb 17.3256 56.6418
rfemur -131.33 0.297404 25.8366
rtibia 85.7947
rfoot -4.0183 -6.01426
rtoes 3.4335
lfemur -131.697 -0.644108 -20.5639
ltibia 86.0399
lfoot -4.86939 0.784549
ltoes -15.1581
